<?xml version="1.0" encoding="UTF-8" standalone="no"?>
<!-- Created with Inkscape (http://www.inkscape.org/) -->

<svg
   width="210mm"
   height="210mm"
   viewBox="0 0 210 210"
   version="1.1"
   id="svg1"
   xmlns="http://www.w3.org/2000/svg"
   xmlns:svg="http://www.w3.org/2000/svg">
  <defs
     id="defs1" />
  <g
     id="layer1">
    <g
       id="g1"
       transform="translate(-2.5375609e-4,-45.448647)">
      <g
         id="g2">
        <path
           d="m 96.455111,92.137583 c -35.998195,-5.6e-4 -65.180597,-59.64204 -65.18062,34.945027 2.3e-5,94.58707 29.182426,-34.944465 65.18062,-34.945027 35.997999,-9e-5 65.180139,129.531647 65.180179,34.945027 -4e-5,-94.586609 -29.18218,-34.944937 -65.180179,-34.945027 z M 35.928601,196.97258 c 17.998617,31.17563 -19.061223,86.26907 62.853591,38.97556 81.914798,-47.29356 -44.854007,-7.80049 -62.853591,-38.97556 -17.999077,-31.17514 79.587629,-121.213479 -2.326808,-73.9202 -81.914387,47.29334 -15.672113,42.74498 2.326808,73.9202 z m 121.053029,0 c 17.99959,-31.17507 84.24182,-26.62704 2.32703,-73.92059 -81.914821,-47.293515 15.67158,42.74496 -2.32703,73.92059 -17.99892,31.17522 -144.76777,-8.31817 -62.853374,38.97517 81.914424,47.29327 44.854294,-7.80004 62.853374,-38.97517 z"
           style="opacity:1;fill:none;fill-opacity:1;stroke:#005186;stroke-width:4;stroke-dasharray:none;stroke-opacity:1"
           id="path43"
           transform="translate(8.544887,-13.52758)" />
      </g>
    </g>
    <path
       style="opacity:1;fill:none;fill-opacity:1;stroke:#005186;stroke-width:4;stroke-dasharray:none;stroke-opacity:1"
       id="path70"
       d="m 128.68197,148.5 c 0,13.07919 -10.60278,23.68197 -23.68197,23.68197 -13.079191,0 -23.681971,-10.60278 -23.681971,-23.68197 0,-13.07919 10.60278,-23.68197 23.681971,-23.68197 13.07919,0 23.68197,10.60278 23.68197,23.68197 h 3.70417 m -3.85182,2.64033 1.84054,0.20649 m -2.28164,2.40092 1.80604,0.41041 m -2.53509,2.13157 1.74902,0.6092 m -2.75694,1.83564 1.6702,0.80041 m -2.94441,1.51682 3.14109,1.96326 m -4.66571,0.19745 1.45131,1.15062 m -3.20732,0.82665 1.31398,1.30525 m -3.27949,0.4639 1.16026,1.44361 m -3.31077,0.0954 0.99208,1.56397 m -3.30076,-0.27434 1.62305,3.32965 m -4.06112,-2.30545 0.62086,1.74492 m -3.15791,-0.99894 0.42243,1.80327 m -3.02685,-1.34479 0.21876,1.83912 m -2.85804,-1.67388 0.0123,1.85205 m -2.6536,-1.98209 -0.38843,3.68375 m -2.221865,-4.10745 -0.398358,1.80873 m -2.148421,-2.52082 -0.597532,1.75304 m -1.853977,-2.74464 -0.789256,1.6755 m -1.536414,-2.93423 -0.971139,1.57705 m -1.199694,-3.08723 -2.281824,2.9179 m 0.292897,-4.66069 -1.296459,1.32265 m -0.485762,-3.27633 -1.43584,1.16986 m -0.117452,-3.31005 -1.557318,1.00248 m 0.252323,-3.30252 -1.659376,0.82261 m 0.618951,-3.25379 -3.481489,1.26494 m 2.718606,-3.79697 -1.800407,0.43445 m 1.32458,-3.03575 -1.83762,0.23102 m 1.654781,-2.86915 -1.851919,0.0247 m 1.964348,-2.66676 -1.843126,-0.18193 m 2.249421,-2.43113 -3.622702,-0.77258 m 4.317798,-1.77889 -1.75699,-0.58583 m 2.732219,-1.87224 -1.680721,-0.77806 m 2.923922,-1.55595 -1.583495,-0.9606 m 3.079167,-1.22025 -1.466523,-1.13116 m 3.196016,-0.86934 -2.662531,-2.57523 m 4.60428,0.78002 -1.179408,-1.42801 m 3.309201,-0.13951 -1.012845,-1.5506 m 3.304125,0.2303 -0.833652,-1.65386 m 3.257848,0.59724 -0.644064,-1.73648 m 3.17095,0.95674 -0.892891,-3.59494 m 3.490957,3.10178 -0.24326,-1.83604 m 2.88011,1.63562 -0.037,-1.85172 m 2.6798,1.94653 0.16964,-1.8443 m 2.44607,2.23316 0.3742,-1.81388 m 2.18185,2.49195 1.14821,-3.52171 m 1.3163,4.48053 0.76684,-1.68587 m 1.57541,2.91349 0.95002,-1.58987 m 1.24075,3.07097 1.12136,-1.47404 m 0.89063,3.19015 1.27871,-1.33982 m 0.5294,3.26956 2.84023,-2.3778 m -1.25854,4.4971 1.54381,-1.02316 m -0.20826,3.30558 1.64826,-0.84466 m -0.57551,3.26176 1.73215,-0.65563 m -0.93558,3.17726 1.79446,-0.45842 m -1.28399,3.05314 3.66875,-0.51099 m -3.45075,3.14645 1.85142,-0.0494 m -1.843,0.68086 h 3.70417"
       transform="translate(-0.09257669,-42.810639)" />
  </g>
</svg>
